<?xml version="1.0" encoding="utf-8" ?><svg xmlns="http://www.w3.org/2000/svg" xmlns:xlink="http://www.w3.org/1999/xlink" width="2784" height="727" viewBox="0 0 2784 727"><clipPath id="cl_5"><rect width="2784.4485" height="726.91345"/></clipPath><g clip-path="url(#cl_5)"><path fill="#15803D" transform="matrix(1.54007 0 0 1.54007 0 -317.255)" d="M1130.82 207.834C1140.56 206.938 1155.68 207.31 1165.85 207.294L1226.49 207.306L1226.56 471.693C1270.38 375.795 1403.48 353.853 1477.31 428.724C1485.53 437.06 1491.96 447.494 1497.43 457.805C1504.46 447.348 1512.45 437.153 1521.6 428.614C1588.56 366.158 1706.53 369.767 1769.17 436.818C1822.76 494.17 1815.75 576.981 1761.11 629.968C1701.27 688.002 1585.36 688.532 1524.29 632.606C1515.61 624.67 1509.25 616.372 1501.36 607.838C1489.14 628.282 1469.3 646.459 1447.84 656.483C1363.96 695.649 1268.78 671.301 1226.82 587.614C1225.5 610.113 1226.46 643.366 1226.49 666.538C1194.68 666.747 1162.86 666.744 1131.04 666.528C1130.66 656.265 1130.93 645.298 1131.01 634.978C1114.94 650.84 1100.94 662.111 1078.84 668.819C1044.38 679.278 1007.93 675.841 976.173 659.574C944.849 642.283 927.467 617.204 913.604 585.337C914.56 611.84 914.21 639.918 913.769 666.405C887.175 667.258 844.317 667.428 817.926 666.277C816.692 644.197 817.412 615.646 817.343 593.128L817.335 456.372C782.492 526.412 743.163 596.502 707.56 666.547C686.011 666.671 664.461 666.66 642.911 666.513C639.323 661.905 630.281 644.381 627.14 638.605C615.062 616.346 603.113 594.018 591.292 571.621L536.244 469.651C523.017 445.36 507.588 417.87 495.637 393.085C503.69 391.584 533.109 392.064 542.236 392.25C563.661 392.685 586.892 391.762 608.091 392.549C612.542 401.263 618.025 414.854 622.168 424.225L655.61 500.112C661.396 513.008 667.552 527.55 674.118 539.951C695.253 494.224 719.825 439.214 738.325 392.756C745.775 392.19 754.501 392.103 762.013 392.313C812.098 393.717 864.075 390.312 913.944 392.869C914.826 413.131 915.243 453.562 913.91 473.235C934.614 424.933 966.861 391.891 1021.71 385.195C1064.31 379.994 1096.23 390.627 1129.96 416.538C1129.85 400.086 1129.27 211.988 1130.82 207.834ZM1603.28 441.668C1590.86 446.656 1583.75 452.706 1583.59 467.133C1583.2 502.27 1583.75 536.795 1583.38 572.024C1583.14 594.765 1602.99 605.619 1623.12 596.442C1638.59 588.823 1654.23 576.975 1669.18 568.1C1681.15 560.705 1706.57 547.915 1715.25 538.593C1718.04 535.603 1719.63 532.34 1720.56 528.367C1722.44 520.353 1721.53 510.799 1716.93 503.817C1712.22 496.681 1635.4 450.666 1623.03 444.454C1620.5 443.183 1617.76 442.177 1614.96 441.725C1611.11 441.105 1607.13 441.292 1603.28 441.668ZM1071.91 594.418C1107.82 592.776 1135.61 562.331 1133.99 526.401C1132.38 490.471 1101.96 462.649 1066.05 464.243C1030.09 465.839 1002.25 496.301 1003.87 532.265C1005.49 568.228 1035.96 596.062 1071.91 594.418ZM1437.08 569.109C1450.18 574.481 1464.91 582.449 1477.58 589.118L1496.38 598.297C1486.21 582.388 1480.97 561.447 1479.73 542.746L1368.51 542.531C1353.07 542.53 1326.83 541.741 1312.6 542.917C1314.4 579.09 1334.76 597.113 1371.31 598.777C1395.62 599.884 1415.83 592.696 1432.05 574.068C1433.28 572.669 1435.66 570.359 1437.08 569.109ZM1315.75 489.873C1336.24 490.153 1356.73 490.123 1377.21 489.783L1419.99 489.656C1413.21 457.999 1392.32 441.517 1359.54 445.351C1333.56 448.86 1317.22 462.744 1315.75 489.873Z"/><path transform="matrix(1.54007 0 0 1.54007 0 -317.255)" d="M470.487 392.395C476.02 397.756 564.715 563.109 565.584 567.865C566.676 573.844 567.368 661.866 566.175 665.021C565.96 665.591 565.493 666.03 565.151 666.534C534.218 667.159 501.701 666.674 470.644 666.693C472.395 594.932 470.301 522.789 470.985 450.985C471.169 431.659 471.41 411.663 470.487 392.395Z"/><path fill="#15803D" transform="matrix(1.54007 0 0 1.54007 0 -317.255)" d="M863.622 221.798C894.545 219.684 921.318 243.068 923.398 274.006C925.477 304.944 902.074 331.703 871.146 333.749C840.265 335.793 813.566 312.424 811.49 281.533C809.414 250.642 832.745 223.908 863.622 221.798Z"/><path transform="matrix(1.54007 0 0 1.54007 0 -317.255)" d="M18.8877 291.778C38.0569 291.493 57.2288 291.431 76.3994 291.593C87.3316 291.619 103.737 291.278 114.382 292.145L114.501 392.54C129.648 392.534 158.903 391.628 172.705 392.818C172.957 405.857 173.309 418.583 172.802 431.622C222.677 373.431 306.283 368.042 364.246 417.606C364.297 409.614 364.167 400.689 364.852 392.809C395.675 392.434 432.484 391.815 463.195 392.663C462.298 456.967 461.978 521.277 462.235 585.586C462.264 608.902 463.919 644.322 462.808 666.592C434.307 667.01 393.545 667.831 365.507 666.631L364.848 635.586C310.448 691.081 222.294 687.472 173.017 627.509C177.799 638.622 179.878 646.01 182.5 657.86C135.439 682.676 60.7604 685.423 32.4734 631.414C27.2393 621.327 23.5847 610.496 21.6376 599.299C18.2785 580.338 18.7993 557.949 18.7069 538.639C18.5892 514.034 18.9825 489.319 18.7127 464.715C12.6151 464.57 6.05471 464.3 0 464.344L0 392.666L18.6892 392.587L18.7418 327.375C18.7425 316.711 18.3032 302.203 18.8877 291.778ZM310.762 593.888C346.448 589.94 372.222 557.862 368.404 522.148C364.586 486.433 332.615 460.534 296.901 464.224C261.004 467.934 234.953 500.117 238.791 536.014C242.628 571.912 274.893 597.856 310.762 593.888ZM148.629 587.006L146.03 579.154C134.411 540.403 137.758 502.114 151.413 464.516C141.793 464.433 123.383 463.747 114.465 464.429L114.399 525.757C114.393 552.502 107.665 599.253 148.629 587.006Z"/></g></svg>