<?xml version="1.0" encoding="utf-8" ?><svg xmlns="http://www.w3.org/2000/svg" xmlns:xlink="http://www.w3.org/1999/xlink" width="1536" height="1536" viewBox="0 0 1536 1536"><path fill="#006D77" transform="scale(1.5 1.5)" d="M263.305 339.643C285.4 337.015 319.163 361.436 338.529 372.605L426.261 423.327L506.934 469.534L534.215 485.236C546.952 492.499 559.59 497.969 567.304 511.059C579.238 531.308 575.946 557.871 559.701 574.797C555.198 579.488 548.983 582.131 543.774 585.897C538.504 589.652 533.363 593.603 527.912 597.094C499.092 614.944 468.98 631.173 439.75 648.349C426.516 655.341 413.42 663.845 400.265 671.128C384.358 679.933 368.792 689.678 352.911 698.55C343.562 703.34 334.164 706.76 324.94 711.954C312.792 718.611 301.117 726.79 288.575 732.66C268.23 742.181 240.962 736.186 227.368 718.043C223.06 712.292 217.857 703.677 217.116 696.509C215.386 679.791 216.061 661.631 216.058 644.849L216.04 550.024L216.01 441.439L216.009 408.239C216.012 391.528 215.182 374.84 225.86 360.604C235.419 347.859 247.838 342.078 263.305 339.643Z"/><defs><linearGradient id="gradient_0" gradientUnits="userSpaceOnUse" x1="115.30679" y1="137.37616" x2="109.9079" y2="766.1214"><stop offset="0" stop-color="#83C5BE"/><stop offset="1" stop-color="#BDF7E6"/></linearGradient></defs><path fill="url(#gradient_0)" transform="scale(1.5 1.5)" d="M70.4365 135.425C84.541 142.115 101.987 153.41 115.784 161.591C127.71 168.664 144.638 177.444 155.443 184.983C154.713 187.093 154.703 192.268 155.339 194.25C155.73 196.94 155.581 206.068 155.633 209.16C155.875 221.886 155.981 234.613 155.951 247.341L155.983 362.282L155.955 768.818C152.87 766.897 149.711 765.156 146.581 763.319C121.196 748.428 95.2606 734.12 70.1896 718.724C69.6723 707.147 70.0121 693.446 70.0081 681.738L70.0034 614.884L70.0129 412.852L69.9935 237.154L69.8788 168.8C69.9487 157.873 69.8353 146.246 70.4365 135.425Z"/><defs><linearGradient id="gradient_1" gradientUnits="userSpaceOnUse" x1="328.14218" y1="716.03064" x2="815.88245" y2="709.23615"><stop offset="0" stop-color="#09775D"/><stop offset="1" stop-color="#EDF6F9"/></linearGradient></defs><path fill="url(#gradient_1)" transform="scale(1.5 1.5)" d="M706.124 538.344C728.964 551.253 751.955 565.712 774.494 579.215C782.98 584.187 791.434 589.213 799.857 594.291C804.368 596.992 810.4 600.332 814.444 603.526L810.207 605.862L816.834 610.495C807.953 614.979 795.511 623.213 786.445 628.62L710.646 674.593L470.8 818.087L396.545 862.534C386.615 868.493 370.004 879.261 360.089 884.296C356.544 882.001 352.107 888.496 347.646 887.051C345.763 884.854 344.26 881.623 343.541 878.794C340.272 865.915 339.627 852.384 336.853 839.364C335.338 832.251 333.938 825.249 332.64 818.11C332.403 816.809 330.23 814.978 329.766 813.652C329.19 810.101 330.23 806.089 332.349 803.187C333.167 802.068 332.839 802.482 332.553 800.629C341.965 794.444 352.765 788.257 362.521 782.362L404.24 757.047L520.337 687.368L607.735 635.047L635.169 618.409C640.031 615.433 646.785 611.018 651.738 608.501C646.412 604.44 627.342 593.181 620.979 589.405C632.836 580.961 652.672 570.147 665.511 562.342C676.983 555.369 694.722 543.817 706.124 538.344Z"/><defs><linearGradient id="gradient_2" gradientUnits="userSpaceOnUse" x1="506.45807" y1="468.75562" x2="1008.9755" y2="480.24683"><stop offset="0" stop-color="#ACC2C4"/><stop offset="1" stop-color="#0D6CA2"/></linearGradient></defs><path fill="url(#gradient_2)" transform="scale(1.5 1.5)" d="M510.976 289.525L1009.2 588.639C1000.6 593.33 990.869 599.594 982.365 604.685C966.148 614.332 949.988 624.075 933.887 633.915C923.658 640.22 905.347 652.077 894.753 656.823C868.671 641.564 842.697 626.121 816.834 610.495L810.207 605.862L814.444 603.526C822.914 597.723 831.935 592.659 840.546 586.872L604.916 445.515L541.714 407.664C531.278 401.403 519.629 394.769 509.516 388.165C511.42 385.966 510.892 388.661 513.604 388.207C515.375 385.501 515.75 384.935 518.122 382.798L518.644 382.337C518.275 376.021 520.7 375.351 520.856 371.047C521.66 348.813 525.221 324.843 519.211 303.147C517.636 297.46 510.072 298.035 510.976 289.525Z"/><defs><linearGradient id="gradient_3" gradientUnits="userSpaceOnUse" x1="82.548843" y1="909.92688" x2="349.95493" y2="861.10553"><stop offset="0" stop-color="#005B68"/><stop offset="1" stop-color="#09795F"/></linearGradient></defs><path fill="url(#gradient_3)" transform="scale(1.5 1.5)" d="M182.009 790.649L182.006 890.745L266.015 840.491C287.907 827.345 310.484 813.315 332.553 800.629C332.839 802.482 333.167 802.068 332.349 803.187C330.23 806.089 329.19 810.101 329.766 813.652C330.23 814.978 332.403 816.809 332.64 818.11C333.938 825.249 335.338 832.251 336.853 839.364C339.627 852.384 340.272 865.915 343.541 878.794C344.26 881.623 345.763 884.854 347.646 887.051C352.107 888.496 356.544 882.001 360.089 884.296C353.324 888.847 343.245 894.478 336.072 898.772L289.218 926.834C251.778 949.326 211.781 974.177 174.023 995.466L173.717 931.814C173.702 922.707 173.314 910.067 173.827 901.178C146.282 916.128 116.081 936.241 88.4714 949.996C89.2318 941.397 88.5565 924.27 88.5364 914.811L88.499 844.371L152.589 807.051C161.253 802.099 173.331 794.72 182.009 790.649Z"/><defs><linearGradient id="gradient_4" gradientUnits="userSpaceOnUse" x1="356.69104" y1="290.63956" x2="524.01489" y2="298.6828"><stop offset="0" stop-color="#85ADC4"/><stop offset="1" stop-color="#AEC2C3"/></linearGradient></defs><path fill="url(#gradient_4)" transform="scale(1.5 1.5)" d="M360.024 199.111C372.395 205.81 386.398 214.699 398.583 222.021L476.072 268.608C487.333 275.352 499.639 283.166 510.976 289.525C510.072 298.035 517.636 297.46 519.211 303.147C525.221 324.843 521.66 348.813 520.856 371.047C520.7 375.351 518.275 376.021 518.644 382.337L518.122 382.798C515.75 384.935 515.375 385.501 513.604 388.207C510.892 388.661 511.42 385.966 509.516 388.165C507.544 387.492 489.536 376.215 486.148 374.252C443.77 349.692 402.119 323.927 359.995 298.874L360.024 199.111Z"/><defs><linearGradient id="gradient_5" gradientUnits="userSpaceOnUse" x1="197.51079" y1="87.350983" x2="205.96307" y2="248.65039"><stop offset="0" stop-color="#8CCAC1"/><stop offset="1" stop-color="#B5F1E1"/></linearGradient></defs><path fill="url(#gradient_5)" transform="scale(1.5 1.5)" d="M155.923 87.6736L218.014 123.834C227.171 129.106 240.459 136.122 248.944 141.707C249.598 177.234 248.47 213.383 249.074 248.82C218.154 232.097 186.03 212.023 155.339 194.25C154.703 192.268 154.713 187.093 155.443 184.983C156.267 181.572 155.989 161.385 155.994 156.576L155.923 87.6736Z"/></svg>